
<svg version="1.0" xmlns="http://www.w3.org/2000/svg"
 width="512.000000pt" height="512.000000pt" viewBox="0 0 512.000000 512.000000"
 preserveAspectRatio="xMidYMid meet">

<g transform="translate(0.000000,512.000000) scale(0.100000,-0.100000)"
fill="#000000" stroke="none">
<path d="M0 2560 l0 -2560 2560 0 2560 0 0 2560 0 2560 -2560 0 -2560 0 0
-2560z m1307 795 c233 -6 314 -20 430 -74 192 -90 350 -275 397 -466 10 -38
22 -86 27 -106 15 -60 9 -217 -11 -301 -48 -195 -141 -343 -285 -450 -124 -93
-235 -145 -380 -177 -121 -26 -770 -42 -793 -19 -9 9 -12 201 -12 803 0 436 3
795 8 799 4 4 97 5 207 2 110 -4 295 -9 412 -11z m3058 -26 c65 -13 194 -62
237 -91 14 -10 30 -18 34 -18 17 0 54 -45 54 -66 0 -13 -10 -30 -22 -38 -19
-13 -25 -13 -57 0 -20 8 -45 23 -56 34 -31 28 -122 68 -209 90 -96 24 -289 37
-328 21 l-28 -11 0 -689 0 -689 74 -7 c210 -20 443 49 545 160 49 54 101 44
101 -20 0 -36 -15 -52 -111 -112 -211 -133 -539 -160 -823 -67 -97 32 -243
120 -311 189 -100 100 -178 244 -203 375 -25 127 -27 149 -20 245 12 171 61
283 188 432 53 62 87 90 160 133 120 71 257 125 360 140 72 11 339 4 415 -11z
m-2685 -2059 c11 -11 20 -24 20 -30 0 -12 -37 -50 -48 -50 -17 0 -52 32 -52
47 0 21 29 53 47 53 7 0 22 -9 33 -20z m680 0 c11 -11 20 -24 20 -30 0 -12
-37 -50 -48 -50 -17 0 -52 32 -52 47 0 21 29 53 47 53 7 0 22 -9 33 -20z
m-924 -19 c130 -58 133 -269 3 -341 -37 -20 -61 -25 -146 -28 l-103 -4 0 195
0 196 43 4 c68 7 159 -3 203 -22z m724 -46 c0 -32 2 -35 30 -35 28 0 30 -2 30
-40 0 -38 -2 -40 -30 -40 l-31 0 3 -62 c3 -60 4 -63 31 -66 24 -3 27 -7 27
-43 l0 -39 -49 0 c-79 0 -95 20 -99 123 -4 74 -7 86 -23 90 -28 7 -27 67 1 74
14 4 20 14 20 33 0 29 11 35 68 39 19 1 22 -4 22 -34z m-465 -180 l0 -140 -47
-3 -48 -3 0 139 c0 76 3 142 7 146 4 4 25 6 48 4 l40 -3 0 -140z m289 137 c3
-5 2 -22 -3 -38 -7 -26 -11 -29 -44 -26 -28 3 -42 -2 -62 -22 -32 -32 -32 -70
1 -103 21 -21 32 -25 64 -20 36 5 38 3 44 -26 8 -38 -4 -47 -67 -47 -99 0
-157 52 -157 141 0 56 31 107 80 131 36 18 135 25 144 10z m391 -137 l0 -140
-47 -3 -48 -3 0 139 c0 76 3 142 7 146 4 4 25 6 48 4 l40 -3 0 -140z m292 125
c91 -55 87 -205 -7 -252 -43 -22 -111 -23 -151 -3 -92 48 -91 207 2 257 45 24
115 23 156 -2z m210 0 c5 -20 5 -20 30 0 28 22 83 26 115 9 34 -18 48 -70 48
-179 l0 -100 -45 0 -45 0 0 86 c0 97 -10 124 -45 124 -35 0 -45 -27 -45 -124
l0 -86 -45 0 -45 0 0 145 0 145 36 0 c27 0 37 -5 41 -20z m453 7 c44 -22 60
-71 60 -179 l0 -98 -39 0 c-22 0 -41 5 -43 11 -2 7 -12 7 -31 0 -50 -19 -86
-13 -118 18 -32 33 -36 58 -14 100 15 30 76 61 120 61 33 0 33 28 0 36 -13 3
-39 1 -57 -5 -34 -12 -42 -8 -52 26 -5 17 -1 23 21 31 39 15 123 14 153 -1z
m217 -6 c5 -20 5 -20 26 0 11 10 33 19 49 19 26 0 28 -3 28 -40 0 -35 -3 -40
-23 -40 -12 0 -33 -7 -45 -16 -20 -14 -22 -23 -22 -105 l0 -89 -44 0 -45 0 -3
141 c-2 77 -1 143 1 145 2 2 20 4 39 4 25 0 35 -5 39 -19z m258 -68 c14 -49
27 -92 28 -97 2 -4 11 27 21 70 25 108 29 114 76 114 29 0 40 -4 40 -15 0 -24
-90 -266 -112 -303 -27 -44 -66 -79 -100 -91 -31 -11 -33 -9 -42 35 -6 28 -4
33 28 52 25 15 36 28 36 44 -1 13 -23 77 -49 143 -27 66 -47 123 -44 128 2 4
24 7 48 7 l44 0 26 -87z"/>
<path d="M1262 2573 l3 -708 91 2 c233 4 432 104 568 282 98 130 138 258 138
441 0 165 -11 205 -121 409 -29 54 -137 146 -222 189 -106 54 -270 90 -412 92
l-47 0 2 -707z"/>
<path d="M1280 1075 l0 -125 31 0 c45 0 96 27 108 58 20 51 23 81 11 116 -16
50 -53 76 -106 76 l-44 0 0 -125z"/>
<path d="M2549 1083 c-8 -9 -14 -35 -14 -58 0 -51 18 -75 56 -75 22 0 32 6 39
26 23 60 3 124 -40 124 -15 0 -34 -7 -41 -17z"/>
<path d="M3229 994 c-15 -18 -2 -47 23 -52 20 -4 48 24 48 49 0 24 -51 27 -71
3z"/>
</g>
</svg>
